<mxfile host="app.diagrams.net" modified="2024-02-08T04:26:25.255Z" agent="Mozilla/5.0 (Windows NT 10.0; Win64; x64) AppleWebKit/537.36 (KHTML, like Gecko) Chrome/121.0.0.0 Safari/537.36" etag="aK3zWnVJmZU2pJ9r1NjC" version="23.1.1" type="github">
  <diagram name="Page-1" id="TymfSHIw9w5McwtJT14T">
    <mxGraphModel dx="2284" dy="1846" grid="1" gridSize="10" guides="1" tooltips="1" connect="1" arrows="1" fold="1" page="1" pageScale="1" pageWidth="850" pageHeight="1100" math="0" shadow="0">
      <root>
        <mxCell id="0" />
        <mxCell id="1" parent="0" />
        <mxCell id="TyD-31y_tOTn_jJS1_9M-1" value="Professor" style="rounded=0;whiteSpace=wrap;html=1;" parent="1" vertex="1">
          <mxGeometry x="370" y="65" width="120" height="60" as="geometry" />
        </mxCell>
        <mxCell id="TyD-31y_tOTn_jJS1_9M-3" value="Name" style="ellipse;whiteSpace=wrap;html=1;" parent="1" vertex="1">
          <mxGeometry x="230" y="-10" width="70" height="50" as="geometry" />
        </mxCell>
        <mxCell id="TyD-31y_tOTn_jJS1_9M-4" value="&lt;b&gt;&lt;u&gt;SSN&lt;/u&gt;&lt;/b&gt;" style="ellipse;whiteSpace=wrap;html=1;" parent="1" vertex="1">
          <mxGeometry x="317.5" y="-40" width="85" height="55" as="geometry" />
        </mxCell>
        <mxCell id="TyD-31y_tOTn_jJS1_9M-5" value="age" style="ellipse;whiteSpace=wrap;html=1;" parent="1" vertex="1">
          <mxGeometry x="425" y="-40" width="85" height="55" as="geometry" />
        </mxCell>
        <mxCell id="TyD-31y_tOTn_jJS1_9M-6" value="rank" style="ellipse;whiteSpace=wrap;html=1;" parent="1" vertex="1">
          <mxGeometry x="530" y="-30" width="85" height="55" as="geometry" />
        </mxCell>
        <mxCell id="TyD-31y_tOTn_jJS1_9M-7" value="research&amp;nbsp;&lt;br&gt;specialty" style="ellipse;whiteSpace=wrap;html=1;" parent="1" vertex="1">
          <mxGeometry x="540" y="37.5" width="85" height="55" as="geometry" />
        </mxCell>
        <mxCell id="TyD-31y_tOTn_jJS1_9M-8" value="Projects" style="rounded=0;whiteSpace=wrap;html=1;" parent="1" vertex="1">
          <mxGeometry x="20" y="320" width="120" height="60" as="geometry" />
        </mxCell>
        <mxCell id="TyD-31y_tOTn_jJS1_9M-9" value="Sponsor Name" style="ellipse;whiteSpace=wrap;html=1;" parent="1" vertex="1">
          <mxGeometry x="-60" y="230" width="85" height="55" as="geometry" />
        </mxCell>
        <mxCell id="TyD-31y_tOTn_jJS1_9M-10" value="starting date" style="ellipse;whiteSpace=wrap;html=1;" parent="1" vertex="1">
          <mxGeometry x="-100" y="310" width="85" height="55" as="geometry" />
        </mxCell>
        <mxCell id="TyD-31y_tOTn_jJS1_9M-11" value="budget" style="ellipse;whiteSpace=wrap;html=1;" parent="1" vertex="1">
          <mxGeometry x="25" y="420" width="85" height="55" as="geometry" />
        </mxCell>
        <mxCell id="TyD-31y_tOTn_jJS1_9M-12" value="&lt;b&gt;&lt;u&gt;Project Number&lt;/u&gt;&lt;/b&gt;" style="ellipse;whiteSpace=wrap;html=1;" parent="1" vertex="1">
          <mxGeometry x="37.5" y="210" width="85" height="50" as="geometry" />
        </mxCell>
        <mxCell id="TyD-31y_tOTn_jJS1_9M-13" value="ending date" style="ellipse;whiteSpace=wrap;html=1;" parent="1" vertex="1">
          <mxGeometry x="-85" y="400" width="85" height="55" as="geometry" />
        </mxCell>
        <mxCell id="TyD-31y_tOTn_jJS1_9M-14" value="graduate students" style="rounded=0;whiteSpace=wrap;html=1;" parent="1" vertex="1">
          <mxGeometry x="660" y="380" width="120" height="60" as="geometry" />
        </mxCell>
        <mxCell id="TyD-31y_tOTn_jJS1_9M-15" value="&lt;b&gt;&lt;u&gt;SSN&lt;/u&gt;&lt;/b&gt;" style="ellipse;whiteSpace=wrap;html=1;" parent="1" vertex="1">
          <mxGeometry x="615" y="280" width="85" height="55" as="geometry" />
        </mxCell>
        <mxCell id="TyD-31y_tOTn_jJS1_9M-16" value="Name" style="ellipse;whiteSpace=wrap;html=1;" parent="1" vertex="1">
          <mxGeometry x="730" y="280" width="85" height="55" as="geometry" />
        </mxCell>
        <mxCell id="TyD-31y_tOTn_jJS1_9M-17" value="Age" style="ellipse;whiteSpace=wrap;html=1;" parent="1" vertex="1">
          <mxGeometry x="815" y="350" width="85" height="55" as="geometry" />
        </mxCell>
        <mxCell id="TyD-31y_tOTn_jJS1_9M-18" value="Degree Program" style="ellipse;whiteSpace=wrap;html=1;" parent="1" vertex="1">
          <mxGeometry x="810" y="440" width="85" height="55" as="geometry" />
        </mxCell>
        <mxCell id="TyD-31y_tOTn_jJS1_9M-19" value="Department" style="rounded=0;whiteSpace=wrap;html=1;" parent="1" vertex="1">
          <mxGeometry x="780" y="55" width="120" height="60" as="geometry" />
        </mxCell>
        <mxCell id="TyD-31y_tOTn_jJS1_9M-20" value="department name" style="ellipse;whiteSpace=wrap;html=1;" parent="1" vertex="1">
          <mxGeometry x="980" y="170" width="85" height="55" as="geometry" />
        </mxCell>
        <mxCell id="TyD-31y_tOTn_jJS1_9M-21" value="&lt;b&gt;&lt;u&gt;department number&lt;/u&gt;&lt;/b&gt;" style="ellipse;whiteSpace=wrap;html=1;" parent="1" vertex="1">
          <mxGeometry x="1000" y="95" width="85" height="55" as="geometry" />
        </mxCell>
        <mxCell id="TyD-31y_tOTn_jJS1_9M-22" value="main office" style="ellipse;whiteSpace=wrap;html=1;" parent="1" vertex="1">
          <mxGeometry x="980" y="25" width="85" height="55" as="geometry" />
        </mxCell>
        <mxCell id="TyD-31y_tOTn_jJS1_9M-28" value="" style="endArrow=none;html=1;rounded=0;exitX=0.5;exitY=0;exitDx=0;exitDy=0;entryX=0.5;entryY=1;entryDx=0;entryDy=0;" parent="1" source="TyD-31y_tOTn_jJS1_9M-8" target="TyD-31y_tOTn_jJS1_9M-12" edge="1">
          <mxGeometry width="50" height="50" relative="1" as="geometry">
            <mxPoint x="270" y="310" as="sourcePoint" />
            <mxPoint x="320" y="260" as="targetPoint" />
            <Array as="points" />
          </mxGeometry>
        </mxCell>
        <mxCell id="TyD-31y_tOTn_jJS1_9M-29" value="" style="endArrow=none;html=1;rounded=0;entryX=1;entryY=1;entryDx=0;entryDy=0;exitX=0.181;exitY=-0.026;exitDx=0;exitDy=0;exitPerimeter=0;" parent="1" source="TyD-31y_tOTn_jJS1_9M-8" target="TyD-31y_tOTn_jJS1_9M-9" edge="1">
          <mxGeometry width="50" height="50" relative="1" as="geometry">
            <mxPoint x="10" y="330" as="sourcePoint" />
            <mxPoint x="60" y="280" as="targetPoint" />
          </mxGeometry>
        </mxCell>
        <mxCell id="TyD-31y_tOTn_jJS1_9M-31" value="" style="endArrow=none;html=1;rounded=0;entryX=0;entryY=0.5;entryDx=0;entryDy=0;exitX=0.998;exitY=0.617;exitDx=0;exitDy=0;exitPerimeter=0;" parent="1" source="TyD-31y_tOTn_jJS1_9M-10" target="TyD-31y_tOTn_jJS1_9M-8" edge="1">
          <mxGeometry width="50" height="50" relative="1" as="geometry">
            <mxPoint x="-10" y="380" as="sourcePoint" />
            <mxPoint x="40" y="330" as="targetPoint" />
          </mxGeometry>
        </mxCell>
        <mxCell id="TyD-31y_tOTn_jJS1_9M-32" value="" style="endArrow=none;html=1;rounded=0;exitX=1;exitY=0;exitDx=0;exitDy=0;entryX=0.123;entryY=1.043;entryDx=0;entryDy=0;entryPerimeter=0;" parent="1" source="TyD-31y_tOTn_jJS1_9M-13" target="TyD-31y_tOTn_jJS1_9M-8" edge="1">
          <mxGeometry width="50" height="50" relative="1" as="geometry">
            <mxPoint y="420" as="sourcePoint" />
            <mxPoint x="50" y="370" as="targetPoint" />
          </mxGeometry>
        </mxCell>
        <mxCell id="TyD-31y_tOTn_jJS1_9M-33" value="" style="endArrow=none;html=1;rounded=0;exitX=0.34;exitY=0.04;exitDx=0;exitDy=0;exitPerimeter=0;entryX=0.876;entryY=0.974;entryDx=0;entryDy=0;entryPerimeter=0;" parent="1" source="TyD-31y_tOTn_jJS1_9M-11" target="TyD-31y_tOTn_jJS1_9M-8" edge="1">
          <mxGeometry width="50" height="50" relative="1" as="geometry">
            <mxPoint x="70" y="430" as="sourcePoint" />
            <mxPoint x="120" y="380" as="targetPoint" />
          </mxGeometry>
        </mxCell>
        <mxCell id="TyD-31y_tOTn_jJS1_9M-34" value="" style="endArrow=none;html=1;rounded=0;entryX=0;entryY=0;entryDx=0;entryDy=0;" parent="1" source="TyD-31y_tOTn_jJS1_9M-3" target="TyD-31y_tOTn_jJS1_9M-1" edge="1">
          <mxGeometry width="50" height="50" relative="1" as="geometry">
            <mxPoint x="325" y="75" as="sourcePoint" />
            <mxPoint x="325" y="95.71067811865476" as="targetPoint" />
          </mxGeometry>
        </mxCell>
        <mxCell id="TyD-31y_tOTn_jJS1_9M-35" value="" style="endArrow=none;html=1;rounded=0;entryX=0.411;entryY=1.015;entryDx=0;entryDy=0;entryPerimeter=0;" parent="1" source="TyD-31y_tOTn_jJS1_9M-1" target="TyD-31y_tOTn_jJS1_9M-4" edge="1">
          <mxGeometry width="50" height="50" relative="1" as="geometry">
            <mxPoint x="380" y="75" as="sourcePoint" />
            <mxPoint x="430" y="25" as="targetPoint" />
          </mxGeometry>
        </mxCell>
        <mxCell id="TyD-31y_tOTn_jJS1_9M-36" value="" style="endArrow=none;html=1;rounded=0;entryX=0.211;entryY=0.982;entryDx=0;entryDy=0;entryPerimeter=0;exitX=0.856;exitY=0.031;exitDx=0;exitDy=0;exitPerimeter=0;" parent="1" source="TyD-31y_tOTn_jJS1_9M-1" target="TyD-31y_tOTn_jJS1_9M-5" edge="1">
          <mxGeometry width="50" height="50" relative="1" as="geometry">
            <mxPoint x="480" y="75" as="sourcePoint" />
            <mxPoint x="530" y="25" as="targetPoint" />
          </mxGeometry>
        </mxCell>
        <mxCell id="TyD-31y_tOTn_jJS1_9M-37" value="" style="endArrow=none;html=1;rounded=0;entryX=0;entryY=0.659;entryDx=0;entryDy=0;entryPerimeter=0;exitX=1;exitY=0.5;exitDx=0;exitDy=0;" parent="1" source="TyD-31y_tOTn_jJS1_9M-1" target="TyD-31y_tOTn_jJS1_9M-6" edge="1">
          <mxGeometry width="50" height="50" relative="1" as="geometry">
            <mxPoint x="490" y="125" as="sourcePoint" />
            <mxPoint x="540" y="75" as="targetPoint" />
          </mxGeometry>
        </mxCell>
        <mxCell id="TyD-31y_tOTn_jJS1_9M-38" value="" style="endArrow=none;html=1;rounded=0;entryX=0;entryY=0.591;entryDx=0;entryDy=0;entryPerimeter=0;exitX=1;exitY=0.75;exitDx=0;exitDy=0;" parent="1" source="TyD-31y_tOTn_jJS1_9M-1" target="TyD-31y_tOTn_jJS1_9M-7" edge="1">
          <mxGeometry width="50" height="50" relative="1" as="geometry">
            <mxPoint x="480" y="165" as="sourcePoint" />
            <mxPoint x="530" y="115" as="targetPoint" />
          </mxGeometry>
        </mxCell>
        <mxCell id="TyD-31y_tOTn_jJS1_9M-39" value="" style="endArrow=none;html=1;rounded=0;entryX=0.679;entryY=0.974;entryDx=0;entryDy=0;entryPerimeter=0;" parent="1" source="TyD-31y_tOTn_jJS1_9M-14" target="TyD-31y_tOTn_jJS1_9M-15" edge="1">
          <mxGeometry width="50" height="50" relative="1" as="geometry">
            <mxPoint x="640" y="390" as="sourcePoint" />
            <mxPoint x="690" y="340" as="targetPoint" />
          </mxGeometry>
        </mxCell>
        <mxCell id="TyD-31y_tOTn_jJS1_9M-40" value="" style="endArrow=none;html=1;rounded=0;entryX=0.5;entryY=1;entryDx=0;entryDy=0;exitX=0.664;exitY=-0.061;exitDx=0;exitDy=0;exitPerimeter=0;" parent="1" source="TyD-31y_tOTn_jJS1_9M-14" target="TyD-31y_tOTn_jJS1_9M-16" edge="1">
          <mxGeometry width="50" height="50" relative="1" as="geometry">
            <mxPoint x="740" y="390" as="sourcePoint" />
            <mxPoint x="790" y="340" as="targetPoint" />
          </mxGeometry>
        </mxCell>
        <mxCell id="TyD-31y_tOTn_jJS1_9M-41" value="" style="endArrow=none;html=1;rounded=0;exitX=1;exitY=0.25;exitDx=0;exitDy=0;" parent="1" source="TyD-31y_tOTn_jJS1_9M-14" target="TyD-31y_tOTn_jJS1_9M-17" edge="1">
          <mxGeometry width="50" height="50" relative="1" as="geometry">
            <mxPoint x="760" y="400" as="sourcePoint" />
            <mxPoint x="810" y="350" as="targetPoint" />
          </mxGeometry>
        </mxCell>
        <mxCell id="TyD-31y_tOTn_jJS1_9M-42" value="" style="endArrow=none;html=1;rounded=0;exitX=1.02;exitY=0.87;exitDx=0;exitDy=0;exitPerimeter=0;" parent="1" source="TyD-31y_tOTn_jJS1_9M-14" target="TyD-31y_tOTn_jJS1_9M-18" edge="1">
          <mxGeometry width="50" height="50" relative="1" as="geometry">
            <mxPoint x="760" y="480" as="sourcePoint" />
            <mxPoint x="810" y="430" as="targetPoint" />
          </mxGeometry>
        </mxCell>
        <mxCell id="TyD-31y_tOTn_jJS1_9M-43" value="" style="endArrow=none;html=1;rounded=0;exitX=0;exitY=0;exitDx=0;exitDy=0;entryX=0.829;entryY=1.019;entryDx=0;entryDy=0;entryPerimeter=0;" parent="1" source="TyD-31y_tOTn_jJS1_9M-20" target="TyD-31y_tOTn_jJS1_9M-19" edge="1">
          <mxGeometry width="50" height="50" relative="1" as="geometry">
            <mxPoint x="730" y="165" as="sourcePoint" />
            <mxPoint x="780" y="115" as="targetPoint" />
          </mxGeometry>
        </mxCell>
        <mxCell id="TyD-31y_tOTn_jJS1_9M-44" value="" style="endArrow=none;html=1;rounded=0;entryX=1;entryY=1;entryDx=0;entryDy=0;exitX=0.361;exitY=0.003;exitDx=0;exitDy=0;exitPerimeter=0;" parent="1" source="TyD-31y_tOTn_jJS1_9M-21" target="TyD-31y_tOTn_jJS1_9M-19" edge="1">
          <mxGeometry width="50" height="50" relative="1" as="geometry">
            <mxPoint x="810" y="175" as="sourcePoint" />
            <mxPoint x="860" y="125" as="targetPoint" />
            <Array as="points" />
          </mxGeometry>
        </mxCell>
        <mxCell id="TyD-31y_tOTn_jJS1_9M-45" value="" style="endArrow=none;html=1;rounded=0;entryX=1;entryY=0.75;entryDx=0;entryDy=0;exitX=0;exitY=0;exitDx=0;exitDy=0;" parent="1" source="TyD-31y_tOTn_jJS1_9M-22" target="TyD-31y_tOTn_jJS1_9M-19" edge="1">
          <mxGeometry width="50" height="50" relative="1" as="geometry">
            <mxPoint x="870" y="155" as="sourcePoint" />
            <mxPoint x="920" y="105" as="targetPoint" />
          </mxGeometry>
        </mxCell>
        <mxCell id="TyD-31y_tOTn_jJS1_9M-46" value="Manages (Principal&lt;br&gt;Investigator)" style="rhombus;whiteSpace=wrap;html=1;" parent="1" vertex="1">
          <mxGeometry x="140" y="92.5" width="160" height="105" as="geometry" />
        </mxCell>
        <mxCell id="TyD-31y_tOTn_jJS1_9M-48" value="" style="endArrow=classic;html=1;rounded=0;exitX=0.819;exitY=0.008;exitDx=0;exitDy=0;exitPerimeter=0;" parent="1" source="TyD-31y_tOTn_jJS1_9M-8" target="TyD-31y_tOTn_jJS1_9M-46" edge="1">
          <mxGeometry width="50" height="50" relative="1" as="geometry">
            <mxPoint x="120" y="310" as="sourcePoint" />
            <mxPoint x="190" y="240" as="targetPoint" />
            <Array as="points" />
          </mxGeometry>
        </mxCell>
        <mxCell id="TyD-31y_tOTn_jJS1_9M-49" value="" style="endArrow=none;html=1;rounded=0;entryX=0;entryY=0.5;entryDx=0;entryDy=0;" parent="1" source="TyD-31y_tOTn_jJS1_9M-46" target="TyD-31y_tOTn_jJS1_9M-1" edge="1">
          <mxGeometry width="50" height="50" relative="1" as="geometry">
            <mxPoint x="310" y="80" as="sourcePoint" />
            <mxPoint x="320" y="65" as="targetPoint" />
          </mxGeometry>
        </mxCell>
        <mxCell id="TyD-31y_tOTn_jJS1_9M-50" value="Works On (Co-Investigator)" style="rhombus;whiteSpace=wrap;html=1;" parent="1" vertex="1">
          <mxGeometry x="200" y="230" width="170" height="80" as="geometry" />
        </mxCell>
        <mxCell id="TyD-31y_tOTn_jJS1_9M-51" value="" style="endArrow=none;html=1;rounded=0;exitX=1;exitY=0.5;exitDx=0;exitDy=0;entryX=0;entryY=0.5;entryDx=0;entryDy=0;strokeWidth=3;" parent="1" source="TyD-31y_tOTn_jJS1_9M-8" target="TyD-31y_tOTn_jJS1_9M-50" edge="1">
          <mxGeometry width="50" height="50" relative="1" as="geometry">
            <mxPoint x="160" y="360" as="sourcePoint" />
            <mxPoint x="210" y="310" as="targetPoint" />
          </mxGeometry>
        </mxCell>
        <mxCell id="TyD-31y_tOTn_jJS1_9M-52" value="" style="endArrow=none;html=1;rounded=0;entryX=0;entryY=1;entryDx=0;entryDy=0;" parent="1" source="TyD-31y_tOTn_jJS1_9M-50" target="TyD-31y_tOTn_jJS1_9M-1" edge="1">
          <mxGeometry width="50" height="50" relative="1" as="geometry">
            <mxPoint x="310" y="290" as="sourcePoint" />
            <mxPoint x="360" y="240" as="targetPoint" />
          </mxGeometry>
        </mxCell>
        <mxCell id="TyD-31y_tOTn_jJS1_9M-55" value="Works On (Research Assistant)" style="rhombus;whiteSpace=wrap;html=1;" parent="1" vertex="1">
          <mxGeometry x="260" y="380" width="200" height="80" as="geometry" />
        </mxCell>
        <mxCell id="TyD-31y_tOTn_jJS1_9M-56" value="" style="endArrow=none;html=1;rounded=0;exitX=1;exitY=0.75;exitDx=0;exitDy=0;entryX=0;entryY=0.5;entryDx=0;entryDy=0;strokeWidth=1;" parent="1" source="TyD-31y_tOTn_jJS1_9M-8" target="TyD-31y_tOTn_jJS1_9M-55" edge="1">
          <mxGeometry width="50" height="50" relative="1" as="geometry">
            <mxPoint x="140" y="430" as="sourcePoint" />
            <mxPoint x="190" y="380" as="targetPoint" />
          </mxGeometry>
        </mxCell>
        <mxCell id="TyD-31y_tOTn_jJS1_9M-57" value="" style="endArrow=none;html=1;rounded=0;exitX=1;exitY=0.5;exitDx=0;exitDy=0;entryX=0;entryY=0.25;entryDx=0;entryDy=0;" parent="1" source="TyD-31y_tOTn_jJS1_9M-55" target="TyD-31y_tOTn_jJS1_9M-14" edge="1">
          <mxGeometry width="50" height="50" relative="1" as="geometry">
            <mxPoint x="430" y="380" as="sourcePoint" />
            <mxPoint x="480" y="330" as="targetPoint" />
          </mxGeometry>
        </mxCell>
        <mxCell id="TyD-31y_tOTn_jJS1_9M-58" value="Supervises" style="rhombus;whiteSpace=wrap;html=1;" parent="1" vertex="1">
          <mxGeometry x="425" y="195" width="150" height="80" as="geometry" />
        </mxCell>
        <mxCell id="TyD-31y_tOTn_jJS1_9M-59" value="" style="endArrow=none;html=1;rounded=0;entryX=0.75;entryY=1;entryDx=0;entryDy=0;exitX=0.5;exitY=0;exitDx=0;exitDy=0;" parent="1" source="TyD-31y_tOTn_jJS1_9M-58" target="TyD-31y_tOTn_jJS1_9M-1" edge="1">
          <mxGeometry width="50" height="50" relative="1" as="geometry">
            <mxPoint x="400" y="180" as="sourcePoint" />
            <mxPoint x="450" y="130" as="targetPoint" />
          </mxGeometry>
        </mxCell>
        <mxCell id="TyD-31y_tOTn_jJS1_9M-61" value="works for" style="rhombus;whiteSpace=wrap;html=1;" parent="1" vertex="1">
          <mxGeometry x="650" y="157.5" width="80" height="80" as="geometry" />
        </mxCell>
        <mxCell id="TyD-31y_tOTn_jJS1_9M-62" value="" style="endArrow=none;html=1;rounded=0;exitX=1;exitY=1;exitDx=0;exitDy=0;entryX=0;entryY=0.5;entryDx=0;entryDy=0;strokeWidth=3;" parent="1" source="TyD-31y_tOTn_jJS1_9M-1" target="TyD-31y_tOTn_jJS1_9M-61" edge="1">
          <mxGeometry width="50" height="50" relative="1" as="geometry">
            <mxPoint x="590" y="220" as="sourcePoint" />
            <mxPoint x="640" y="170" as="targetPoint" />
          </mxGeometry>
        </mxCell>
        <mxCell id="TyD-31y_tOTn_jJS1_9M-63" value="" style="endArrow=none;html=1;rounded=0;exitX=1;exitY=0.5;exitDx=0;exitDy=0;entryX=0;entryY=1;entryDx=0;entryDy=0;" parent="1" source="TyD-31y_tOTn_jJS1_9M-61" target="TyD-31y_tOTn_jJS1_9M-19" edge="1">
          <mxGeometry width="50" height="50" relative="1" as="geometry">
            <mxPoint x="740" y="200" as="sourcePoint" />
            <mxPoint x="790" y="150" as="targetPoint" />
          </mxGeometry>
        </mxCell>
        <mxCell id="TyD-31y_tOTn_jJS1_9M-64" value="" style="endArrow=none;html=1;rounded=0;exitX=0.663;exitY=0.831;exitDx=0;exitDy=0;exitPerimeter=0;entryX=0;entryY=0.5;entryDx=0;entryDy=0;" parent="1" source="TyD-31y_tOTn_jJS1_9M-61" target="TyD-31y_tOTn_jJS1_9M-65" edge="1">
          <mxGeometry width="50" height="50" relative="1" as="geometry">
            <mxPoint x="770" y="250" as="sourcePoint" />
            <mxPoint x="800" y="224" as="targetPoint" />
          </mxGeometry>
        </mxCell>
        <mxCell id="TyD-31y_tOTn_jJS1_9M-65" value="Time Percentage" style="ellipse;whiteSpace=wrap;html=1;" parent="1" vertex="1">
          <mxGeometry x="760" y="200" width="72" height="60" as="geometry" />
        </mxCell>
        <mxCell id="TyD-31y_tOTn_jJS1_9M-66" value="Enrolled (work for degree)" style="rhombus;whiteSpace=wrap;html=1;" parent="1" vertex="1">
          <mxGeometry x="865" y="240" width="135" height="80" as="geometry" />
        </mxCell>
        <mxCell id="TyD-31y_tOTn_jJS1_9M-68" value="" style="endArrow=classic;html=1;rounded=0;exitX=1;exitY=0;exitDx=0;exitDy=0;" parent="1" source="TyD-31y_tOTn_jJS1_9M-14" target="TyD-31y_tOTn_jJS1_9M-66" edge="1">
          <mxGeometry width="50" height="50" relative="1" as="geometry">
            <mxPoint x="780" y="370" as="sourcePoint" />
            <mxPoint x="850" y="320" as="targetPoint" />
          </mxGeometry>
        </mxCell>
        <mxCell id="TyD-31y_tOTn_jJS1_9M-69" value="" style="endArrow=none;html=1;rounded=0;entryX=0.5;entryY=1;entryDx=0;entryDy=0;exitX=0.5;exitY=0;exitDx=0;exitDy=0;" parent="1" source="TyD-31y_tOTn_jJS1_9M-66" target="TyD-31y_tOTn_jJS1_9M-19" edge="1">
          <mxGeometry width="50" height="50" relative="1" as="geometry">
            <mxPoint x="870" y="230" as="sourcePoint" />
            <mxPoint x="920" y="180" as="targetPoint" />
          </mxGeometry>
        </mxCell>
        <mxCell id="TyD-31y_tOTn_jJS1_9M-70" value="Chairman" style="rhombus;whiteSpace=wrap;html=1;" parent="1" vertex="1">
          <mxGeometry x="610" y="70" width="80" height="80" as="geometry" />
        </mxCell>
        <mxCell id="TyD-31y_tOTn_jJS1_9M-75" value="" style="endArrow=classic;html=1;rounded=0;entryX=0.993;entryY=0.418;entryDx=0;entryDy=0;entryPerimeter=0;exitX=0;exitY=0.5;exitDx=0;exitDy=0;" parent="1" source="TyD-31y_tOTn_jJS1_9M-19" target="TyD-31y_tOTn_jJS1_9M-70" edge="1">
          <mxGeometry width="50" height="50" relative="1" as="geometry">
            <mxPoint x="700" y="140" as="sourcePoint" />
            <mxPoint x="750" y="90" as="targetPoint" />
          </mxGeometry>
        </mxCell>
        <mxCell id="TyD-31y_tOTn_jJS1_9M-76" value="Senior Graduate Advisor" style="rhombus;whiteSpace=wrap;html=1;" parent="1" vertex="1">
          <mxGeometry x="560" y="475" width="80" height="80" as="geometry" />
        </mxCell>
        <mxCell id="TyD-31y_tOTn_jJS1_9M-77" value="" style="endArrow=none;html=1;rounded=0;entryX=0;entryY=0.75;entryDx=0;entryDy=0;exitX=0.5;exitY=0;exitDx=0;exitDy=0;" parent="1" source="TyD-31y_tOTn_jJS1_9M-76" target="TyD-31y_tOTn_jJS1_9M-14" edge="1">
          <mxGeometry width="50" height="50" relative="1" as="geometry">
            <mxPoint x="600" y="470" as="sourcePoint" />
            <mxPoint x="650" y="420" as="targetPoint" />
          </mxGeometry>
        </mxCell>
        <mxCell id="1ZXtwjWcyxXlkyjfAJL8-3" value="" style="endArrow=classic;html=1;rounded=0;exitX=0.5;exitY=1;exitDx=0;exitDy=0;entryX=1;entryY=0.5;entryDx=0;entryDy=0;" edge="1" parent="1" source="TyD-31y_tOTn_jJS1_9M-14" target="TyD-31y_tOTn_jJS1_9M-76">
          <mxGeometry width="50" height="50" relative="1" as="geometry">
            <mxPoint x="660" y="540" as="sourcePoint" />
            <mxPoint x="710" y="490" as="targetPoint" />
            <Array as="points">
              <mxPoint x="720" y="515" />
            </Array>
          </mxGeometry>
        </mxCell>
        <mxCell id="1ZXtwjWcyxXlkyjfAJL8-4" value="Senior" style="text;html=1;strokeColor=none;fillColor=none;align=center;verticalAlign=middle;whiteSpace=wrap;rounded=0;rotation=-45;" vertex="1" parent="1">
          <mxGeometry x="610" y="445" width="60" height="30" as="geometry" />
        </mxCell>
        <mxCell id="1ZXtwjWcyxXlkyjfAJL8-5" value="Grad" style="text;html=1;strokeColor=none;fillColor=none;align=center;verticalAlign=middle;whiteSpace=wrap;rounded=0;rotation=0;" vertex="1" parent="1">
          <mxGeometry x="650" y="520" width="60" height="30" as="geometry" />
        </mxCell>
        <mxCell id="1ZXtwjWcyxXlkyjfAJL8-6" value="" style="endArrow=none;html=1;rounded=0;exitX=1;exitY=0.75;exitDx=0;exitDy=0;entryX=0;entryY=0.5;entryDx=0;entryDy=0;" edge="1" parent="1" source="TyD-31y_tOTn_jJS1_9M-1" target="TyD-31y_tOTn_jJS1_9M-70">
          <mxGeometry width="50" height="50" relative="1" as="geometry">
            <mxPoint x="550" y="140" as="sourcePoint" />
            <mxPoint x="600" y="90" as="targetPoint" />
          </mxGeometry>
        </mxCell>
        <mxCell id="1ZXtwjWcyxXlkyjfAJL8-14" value="" style="endArrow=none;html=1;rounded=0;entryX=1;entryY=1;entryDx=0;entryDy=0;exitX=0;exitY=0;exitDx=0;exitDy=0;" edge="1" parent="1" source="TyD-31y_tOTn_jJS1_9M-14" target="TyD-31y_tOTn_jJS1_9M-58">
          <mxGeometry width="50" height="50" relative="1" as="geometry">
            <mxPoint x="510" y="350" as="sourcePoint" />
            <mxPoint x="560" y="300" as="targetPoint" />
          </mxGeometry>
        </mxCell>
        <mxCell id="1ZXtwjWcyxXlkyjfAJL8-15" value="" style="endArrow=classic;html=1;rounded=0;exitX=1;exitY=0.5;exitDx=0;exitDy=0;strokeWidth=2;" edge="1" parent="1" source="TyD-31y_tOTn_jJS1_9M-8" target="TyD-31y_tOTn_jJS1_9M-58">
          <mxGeometry width="50" height="50" relative="1" as="geometry">
            <mxPoint x="290" y="380" as="sourcePoint" />
            <mxPoint x="340" y="330" as="targetPoint" />
            <Array as="points">
              <mxPoint x="330" y="340" />
            </Array>
          </mxGeometry>
        </mxCell>
      </root>
    </mxGraphModel>
  </diagram>
</mxfile>
